<?xml version="1.0" encoding="UTF-8" standalone="no"?>
<!DOCTYPE svg PUBLIC "-//W3C//DTD SVG 1.1//EN" "http://www.w3.org/Graphics/SVG/1.1/DTD/svg11.dtd">
<svg width="100%" height="100%" viewBox="0 0 5013 1328" version="1.1" xmlns="http://www.w3.org/2000/svg" xmlns:xlink="http://www.w3.org/1999/xlink" xml:space="preserve" xmlns:serif="http://www.serif.com/" style="fill-rule:evenodd;clip-rule:evenodd;stroke-linejoin:round;stroke-miterlimit:2;">
    <g id="Artboard1" transform="matrix(0.858832,0,0,0.951289,0,0)">
        <rect x="0" y="0" width="5837" height="1396" style="fill:none;"/>
        <clipPath id="_clip1">
            <rect x="0" y="0" width="5837" height="1396"/>
        </clipPath>
        <g clip-path="url(#_clip1)">
            <g transform="matrix(1.16437,0,0,1.0512,-693.295,290.646)">
                <path d="M1112.92,1012.5C1112.92,1032.5 1063.42,1042.5 964.424,1042.5C865.424,1042.5 815.924,1032.5 815.924,1012.5L815.924,259.5L635.924,259.5C618.924,259.5 606.924,236.5 599.924,190.5C596.924,168.5 595.424,146 595.424,123C595.424,100 596.924,77.5 599.924,55.5C606.924,9.5 618.924,-13.5 635.924,-13.5L1288.42,-13.5C1305.42,-13.5 1317.42,9.5 1324.42,55.5C1327.42,77.5 1328.92,100 1328.92,123C1328.92,146 1327.42,168.5 1324.42,190.5C1317.42,236.5 1305.42,259.5 1288.42,259.5L1112.92,259.5L1112.92,1012.5Z" style="fill:rgb(0,53,110);fill-rule:nonzero;"/>
                <path d="M1860.67,1051.5C1720.17,1051.5 1605.67,1005.5 1517.17,913.5C1428.67,821.5 1384.42,687.25 1384.42,510.75C1384.42,334.25 1429.17,200.5 1518.67,109.5C1608.17,18.5 1723.67,-27 1865.17,-27C2006.67,-27 2120.92,17.75 2207.92,107.25C2294.92,196.75 2338.42,332.25 2338.42,513.75C2338.42,695.25 2293.92,830.25 2204.92,918.75C2115.92,1007.25 2001.17,1051.5 1860.67,1051.5ZM1861.42,261C1813.42,261 1773.17,283 1740.67,327C1708.17,371 1691.92,432.75 1691.92,512.25C1691.92,591.75 1707.42,652.75 1738.42,695.25C1769.42,737.75 1810.17,759 1860.67,759C1911.17,759 1952.17,737.5 1983.67,694.5C2015.17,651.5 2030.92,590 2030.92,510C2030.92,430 2014.67,368.5 1982.17,325.5C1949.67,282.5 1909.42,261 1861.42,261Z" style="fill:rgb(0,53,110);fill-rule:nonzero;"/>
                <g transform="matrix(0.601336,0,0,0.930372,913.914,-297.333)">
                    <clipPath id="_clip2">
                        <rect x="1082.61" y="22.404" width="986.137" height="225.167"/>
                    </clipPath>
                    <g clip-path="url(#_clip2)">
                        <path d="M1444.88,240.178C1444.88,246.498 1388.25,249.658 1274.97,249.658C1161.7,249.658 1105.07,247.025 1105.07,241.758L1105.07,20.542C1105.07,11.061 1161.7,6.32 1274.97,6.32C1388.25,6.32 1444.88,8.954 1444.88,14.221L1444.88,240.178ZM2007.17,240.178C2007.17,246.498 1950.53,249.658 1837.26,249.658C1723.99,249.658 1667.35,247.025 1667.35,241.758L1667.35,20.542C1667.35,11.061 1723.99,6.32 1837.26,6.32C1950.53,6.32 2007.17,8.954 2007.17,14.221L2007.17,240.178ZM1164.96,1019.18C1063.1,946.49 1012.17,845.889 1012.17,717.373C1012.17,588.857 1063.1,488.256 1164.96,415.571C1266.83,342.885 1404.14,306.543 1576.9,306.543C1749.66,306.543 1886.56,342.885 1987.61,415.571C2088.66,488.256 2139.18,588.857 2139.18,717.373C2139.18,845.889 2088.66,946.49 1987.61,1019.18C1886.56,1091.86 1749.66,1128.2 1576.9,1128.2C1404.14,1128.2 1266.83,1091.86 1164.96,1019.18ZM1578.12,570.422C1486.04,570.422 1439.99,618.879 1439.99,715.793C1439.99,812.707 1486.04,861.164 1578.12,861.164C1670.2,861.164 1716.25,812.707 1716.25,715.793C1716.25,618.879 1670.2,570.422 1578.12,570.422Z" style="fill:rgb(0,53,110);fill-rule:nonzero;"/>
                    </g>
                </g>
                <path d="M2458.42,967.5L2458.42,67.5C2458.42,42.5 2464.67,22.75 2477.17,8.25C2489.67,-6.25 2505.92,-13.5 2525.92,-13.5L2776.42,-13.5C2935.42,-13.5 3056.17,26.5 3138.67,106.5C3221.17,186.5 3262.42,312.5 3262.42,484.5C3262.42,852.5 3105.42,1036.5 2791.42,1036.5L2534.92,1036.5C2483.92,1036.5 2458.42,1013.5 2458.42,967.5ZM2746.42,271.5L2746.42,720C2746.42,741 2747.92,754.25 2750.92,759.75C2753.92,765.25 2762.92,768 2777.92,768C2832.92,768 2874.67,747.5 2903.17,706.5C2931.67,665.5 2945.92,597.25 2945.92,501.75C2945.92,406.25 2931.17,344 2901.67,315C2872.17,286 2825.42,271.5 2761.42,271.5L2746.42,271.5Z" style="fill:rgb(0,53,110);fill-rule:nonzero;"/>
                <path d="M3382.42,967.5L3382.42,67.5C3382.42,42.5 3388.67,22.75 3401.17,8.25C3413.67,-6.25 3429.92,-13.5 3449.92,-13.5L3700.42,-13.5C3859.42,-13.5 3980.17,26.5 4062.67,106.5C4145.17,186.5 4186.42,312.5 4186.42,484.5C4186.42,852.5 4029.42,1036.5 3715.42,1036.5L3458.92,1036.5C3407.92,1036.5 3382.42,1013.5 3382.42,967.5ZM3670.42,271.5L3670.42,720C3670.42,741 3671.92,754.25 3674.92,759.75C3677.92,765.25 3686.92,768 3701.92,768C3756.92,768 3798.67,747.5 3827.17,706.5C3855.67,665.5 3869.92,597.25 3869.92,501.75C3869.92,406.25 3855.17,344 3825.67,315C3796.17,286 3749.42,271.5 3685.42,271.5L3670.42,271.5Z" style="fill:rgb(0,53,110);fill-rule:nonzero;"/>
                <path d="M4793.92,403.5C4812.92,403.5 4822.42,438.5 4822.42,508.5C4822.42,529.5 4820.17,554.25 4815.67,582.75C4811.17,611.25 4802.92,625.5 4790.92,625.5L4600.42,625.5L4600.42,775.5L4876.42,775.5C4893.42,775.5 4904.92,797.5 4910.92,841.5C4913.92,860.5 4915.42,880.75 4915.42,902.25C4915.42,923.75 4912.42,951.5 4906.42,985.5C4900.42,1019.5 4890.42,1036.5 4876.42,1036.5L4363.42,1036.5C4325.42,1036.5 4306.42,1021 4306.42,990L4306.42,25.5C4306.42,-0.5 4317.92,-13.5 4340.92,-13.5L4877.92,-13.5C4898.92,-13.5 4909.42,30.75 4909.42,119.25C4909.42,207.75 4898.92,252 4877.92,252L4600.42,252L4600.42,403.5L4793.92,403.5Z" style="fill:rgb(0,53,110);fill-rule:nonzero;"/>
                <path d="M5030.92,948L5030.92,15C5030.92,-6 5081.67,-16.5 5183.17,-16.5C5284.67,-16.5 5335.42,-6 5335.42,15L5335.42,750L5566.42,750C5584.42,750 5596.92,773.5 5603.92,820.5C5606.92,843.5 5608.42,867 5608.42,891C5608.42,915 5606.92,939.5 5603.92,964.5C5595.92,1012.5 5582.92,1036.5 5564.92,1036.5L5102.92,1036.5C5080.92,1036.5 5063.42,1027.5 5050.42,1009.5C5037.42,991.5 5030.92,971 5030.92,948Z" style="fill:rgb(0,53,110);fill-rule:nonzero;"/>
            </g>
        </g>
    </g>
</svg>
