<?xml version="1.0" encoding="UTF-8" standalone="no"?><!DOCTYPE svg PUBLIC "-//W3C//DTD SVG 1.1//EN" "http://www.w3.org/Graphics/SVG/1.1/DTD/svg11.dtd"><svg width="100%" height="100%" viewBox="0 0 851 851" version="1.1" xmlns="http://www.w3.org/2000/svg" xmlns:xlink="http://www.w3.org/1999/xlink" xml:space="preserve" xmlns:serif="http://www.serif.com/" style="fill-rule:evenodd;clip-rule:evenodd;stroke-linejoin:round;stroke-miterlimit:2;"><g id="logo"><path d="M674.895,587.909l0,-325.412c29.612,-6.126 51.86,-32.333 51.86,-63.751c0,-35.958 -29.148,-65.106 -65.105,-65.106c-31.444,0 -57.69,22.3 -63.778,51.938l-321.065,-0c-6.1,-29.638 -32.334,-51.938 -63.777,-51.938c-35.958,0 -65.106,29.148 -65.106,65.106c0,29.483 19.707,54.091 46.572,62.101l0,328.687c-26.865,8.022 -46.572,32.63 -46.572,62.114c0,35.957 29.148,65.105 65.106,65.105c31.031,0 56.89,-21.757 63.429,-50.802l321.762,-0c6.539,29.057 32.398,50.802 63.429,50.802c35.957,0 65.105,-29.148 65.105,-65.105c0,-31.405 -22.248,-57.613 -51.86,-63.739Zm-405.607,31.521l160.894,-160.894l170.605,170.606c-0.993,2.683 -1.909,5.391 -2.541,8.215l-321.787,0c-1.445,-6.422 -3.973,-12.381 -7.171,-17.927Zm334.388,-391.613l-173.494,173.494l-164.518,-164.518c4.862,-6.694 8.409,-14.329 10.446,-22.596l322.472,-0c1.186,4.785 2.927,9.312 5.094,13.62Zm-202.101,202.1l-162.261,162.261c-5.081,-2.257 -10.524,-3.727 -16.199,-4.604l0,-324.728c3.16,-0.503 6.178,-1.29 9.17,-2.206l169.29,169.277Zm57.226,0l173.404,-173.404c4.45,2.27 9.105,4.114 14.071,5.327l-0,326.727c-7.261,1.767 -14.097,4.656 -20.184,8.641l-167.291,-167.291Z" style="fill:#00356e;fill-rule:nonzero;"/><g><path d="M14.179,440.196l18.392,0l143.082,-3.972c104.236,1.831 190.068,-40.459 190.068,-40.459c75.617,-43.747 195.588,-49.887 195.588,-49.887c180.265,4.489 277.562,99.748 277.562,99.748l-21.048,0l-143.083,3.973c-104.236,-1.832 -190.08,40.458 -190.08,40.458c-75.617,43.748 -195.575,49.874 -195.575,49.874c-180.265,-4.475 -277.563,-99.747 -277.563,-99.747" style="fill:#00356e;fill-rule:nonzero;"/></g></g></svg>