<?xml version="1.0" encoding="UTF-8" standalone="no"?>
<!DOCTYPE svg PUBLIC "-//W3C//DTD SVG 1.1//EN" "http://www.w3.org/Graphics/SVG/1.1/DTD/svg11.dtd">
<svg width="100%" height="100%" viewBox="0 0 7087 2363" version="1.1" xmlns="http://www.w3.org/2000/svg" xmlns:xlink="http://www.w3.org/1999/xlink" xml:space="preserve" xmlns:serif="http://www.serif.com/" style="fill-rule:evenodd;clip-rule:evenodd;stroke-linejoin:round;stroke-miterlimit:2;">
    <g transform="matrix(1,0,0,1,-1612.51,-1909.11)">
        <g id="logo" transform="matrix(0.486123,0,0,0.486123,1844.16,2228.97)">
            <g transform="matrix(53.7388,0,0,53.7388,-1899.7,-3915.73)">
                <path d="M87.679,118.45L87.679,93.219C89.975,92.744 91.7,90.712 91.7,88.276C91.7,85.488 89.44,83.228 86.652,83.228C84.214,83.228 82.179,84.957 81.707,87.255L56.813,87.255C56.34,84.957 54.306,83.228 51.868,83.228C49.08,83.228 46.82,85.488 46.82,88.276C46.82,90.562 48.348,92.47 50.431,93.091L50.431,118.576C48.348,119.198 46.82,121.106 46.82,123.392C46.82,126.18 49.08,128.44 51.868,128.44C54.274,128.44 56.279,126.753 56.786,124.501L81.734,124.501C82.241,126.754 84.246,128.44 86.652,128.44C89.44,128.44 91.7,126.18 91.7,123.392C91.7,120.957 89.975,118.925 87.679,118.45ZM56.23,120.894L68.705,108.419L81.933,121.647C81.856,121.855 81.785,122.065 81.736,122.284L56.786,122.284C56.674,121.786 56.478,121.324 56.23,120.894ZM82.157,90.53L68.705,103.982L55.949,91.226C56.326,90.707 56.601,90.115 56.759,89.474L81.762,89.474C81.854,89.845 81.989,90.196 82.157,90.53ZM66.487,106.2L53.906,118.781C53.512,118.606 53.09,118.492 52.65,118.424L52.65,93.246C52.895,93.207 53.129,93.146 53.361,93.075L66.487,106.2ZM70.924,106.2L84.369,92.755C84.714,92.931 85.075,93.074 85.46,93.168L85.46,118.501C84.897,118.638 84.367,118.862 83.895,119.171L70.924,106.2Z" style="fill:white;fill-rule:nonzero;"/>
            </g>
            <g transform="matrix(53.7388,0,0,-53.7388,-1899.7,7606.61)">
                <path d="M36.45,107.417L37.876,107.417L48.97,107.725C57.052,107.583 63.707,110.862 63.707,110.862C69.57,114.254 78.872,114.73 78.872,114.73C92.849,114.382 100.393,106.996 100.393,106.996L98.761,106.996L87.667,106.688C79.585,106.83 72.929,103.551 72.929,103.551C67.066,100.159 57.765,99.684 57.765,99.684C43.788,100.031 36.244,107.418 36.244,107.418" style="fill:white;fill-rule:nonzero;"/>
            </g>
        </g>
        <g transform="matrix(1,0,0,1,1267.79,695.551)">
            <text x="2307.61px" y="2878.8px" style="font-family:'Inter-ExtraBold', 'Inter';font-weight:800;font-size:1333.33px;fill:white;">THILDE</text>
        </g>
    </g>
</svg>
