<?xml version="1.0" encoding="UTF-8" standalone="no"?><!DOCTYPE svg PUBLIC "-//W3C//DTD SVG 1.1//EN" "http://www.w3.org/Graphics/SVG/1.1/DTD/svg11.dtd"><svg width="100%" height="100%" viewBox="0 0 1401 336" version="1.1" xmlns="http://www.w3.org/2000/svg" xmlns:xlink="http://www.w3.org/1999/xlink" xml:space="preserve" xmlns:serif="http://www.serif.com/" style="fill-rule:evenodd;clip-rule:evenodd;stroke-linejoin:round;stroke-miterlimit:2;"><g><path d="M219.821,119.475c-8.557,-0 -21.884,-0.604 -39.984,-1.81c-17.441,-1.207 -30.768,-1.756 -39.983,-1.646c0.439,12.505 1.92,34.773 4.443,66.803c2.303,28.301 3.455,50.678 3.455,67.132c0,3.73 0.384,9.269 1.152,16.619c0.768,7.349 1.152,12.889 1.152,16.618c-0,8.227 -1.755,15.631 -5.265,22.213c-4.498,8.446 -10.915,12.67 -19.252,12.67c-6.033,-0 -11.353,-1.92 -15.96,-5.759c-5.155,-4.278 -7.733,-9.653 -7.733,-16.125c-0,-1.536 0.274,-3.867 0.822,-6.993c0.549,-3.126 0.823,-5.512 0.823,-7.158c0,-5.045 -0.356,-12.669 -1.069,-22.871c-0.713,-10.201 -1.07,-17.88 -1.07,-23.035c0,-14.699 -1.152,-34.608 -3.455,-59.728c-2.633,-28.849 -4.168,-48.758 -4.607,-59.728l-8.556,0c-24.462,0 -43.877,-1.755 -58.247,-5.265c-12.176,-2.962 -18.264,-10.147 -18.264,-21.555c-0,-5.594 1.974,-10.64 5.923,-15.137c4.607,-5.375 10.641,-7.788 18.1,-7.24c3.839,0.219 12.559,1.152 26.161,2.797c10.86,1.207 19.635,1.81 26.327,1.81c6.691,0 16.7,-0.11 30.028,-0.329c13.328,-0.219 23.337,-0.329 30.029,-0.329c8.336,0 20.841,0.576 37.515,1.728c16.673,1.151 29.178,1.727 37.515,1.727c6.581,0 12.093,2.139 16.536,6.417c4.442,4.278 6.664,9.544 6.664,15.796c-0,6.253 -2.222,11.545 -6.664,15.878c-4.443,4.333 -9.955,6.5 -16.536,6.5Z" style="fill:#00356e;fill-rule:nonzero;"/><path d="M370.374,326.794c-32.469,0 -60.112,-9.324 -82.928,-27.972c-24.352,-19.964 -36.528,-45.796 -36.528,-77.498c0,-37.295 11.683,-71.3 35.047,-102.014c26.217,-34.553 59.235,-51.83 99.053,-51.83c38.283,0 66.968,8.775 86.054,26.326c19.087,17.551 28.63,43.932 28.63,79.144c-0,37.295 -10.75,71.081 -32.25,101.356c-24.79,34.992 -57.15,52.488 -97.078,52.488Zm14.644,-214.724c-24.461,0 -45.413,11.847 -62.854,35.541c-16.344,22.158 -24.516,46.729 -24.516,73.713c-0,18.209 7.075,33.018 21.225,44.426c13.602,10.969 30.769,16.454 51.501,16.454c24.132,-0 44.261,-11.847 60.386,-35.541c14.809,-21.609 22.213,-46.18 22.213,-73.713c-0,-23.036 -5.156,-39.051 -15.467,-48.046c-9.872,-8.556 -27.368,-12.834 -52.488,-12.834Zm46.729,-65.486c-6.472,-0 -12.56,-1.756 -18.264,-5.266c-6.801,-4.168 -10.201,-9.433 -10.201,-15.795c-0,-15.357 11.408,-23.036 34.224,-23.036c5.924,0 11.792,1.974 17.606,5.923c6.691,4.498 10.037,9.873 10.037,16.125c-0,7.35 -3.73,13.054 -11.189,17.112c-6.143,3.291 -13.547,4.937 -22.213,4.937Zm-70.916,-0c-20.403,-0 -30.605,-7.789 -30.605,-23.365c0,-5.265 3.401,-10.201 10.202,-14.809c6.362,-4.278 12.56,-6.417 18.593,-6.417c21.171,0 31.701,7.898 31.591,23.694c0,5.485 -3.839,10.476 -11.517,14.973c-6.692,3.949 -12.78,5.924 -18.264,5.924Z" style="fill:#00356e;fill-rule:nonzero;"/><path d="M556.468,318.403c-6.472,-0.11 -11.902,-2.331 -16.289,-6.664c-4.388,-4.333 -6.582,-9.571 -6.582,-15.714c0,-10.969 0.521,-27.423 1.563,-49.362c1.042,-21.938 1.563,-38.392 1.563,-49.361c0,-12.176 -0.246,-30.44 -0.74,-54.792c-0.494,-24.352 -0.741,-42.616 -0.741,-54.792c0,-6.033 2.907,-12.038 8.721,-18.017c5.814,-5.978 12.011,-8.967 18.593,-8.967c3.62,-0 12.724,3.4 27.314,10.201c17.002,8.118 27.094,12.67 30.275,13.657c32.14,10.421 59.563,26.546 82.269,48.375c27.095,25.997 40.642,54.736 40.642,86.218c-0,18.977 -4.662,37.022 -13.986,54.134c-9.324,17.441 -22.103,31.427 -38.338,41.957c-18.209,11.847 -43.822,17.771 -76.84,17.771c-8.007,-0 -17.221,-1.152 -27.642,-3.456c-12.615,-2.852 -22.542,-6.581 -29.782,-11.188Zm92.471,-169.147c-10.64,-6.691 -33.456,-17.222 -68.448,-31.591l-0,162.894c4.278,2.742 9.187,4.799 14.726,6.17c5.54,1.371 11.71,2.057 18.511,2.057c23.693,-0 40.696,-3.291 51.007,-9.873c9.763,-6.252 17.523,-14.754 23.282,-25.503c5.759,-10.75 8.639,-21.939 8.639,-33.566c-0,-27.204 -15.906,-50.733 -47.717,-70.588Z" style="fill:#00356e;fill-rule:nonzero;"/><path d="M799.657,318.403c-6.472,-0.11 -11.901,-2.331 -16.289,-6.664c-4.388,-4.333 -6.582,-9.571 -6.582,-15.714c0,-10.969 0.521,-27.423 1.563,-49.362c1.042,-21.938 1.564,-38.392 1.564,-49.361c-0,-12.176 -0.247,-30.44 -0.741,-54.792c-0.494,-24.352 -0.74,-42.616 -0.74,-54.792c-0,-6.033 2.907,-12.038 8.72,-18.017c5.814,-5.978 12.012,-8.967 18.593,-8.967c3.62,-0 12.725,3.4 27.314,10.201c17.002,8.118 27.094,12.67 30.275,13.657c32.14,10.421 59.563,26.546 82.27,48.375c27.094,25.997 40.641,54.736 40.641,86.218c-0,18.977 -4.662,37.022 -13.986,54.134c-9.324,17.441 -22.103,31.427 -38.338,41.957c-18.209,11.847 -43.822,17.771 -76.84,17.771c-8.007,-0 -17.221,-1.152 -27.642,-3.456c-12.615,-2.852 -22.542,-6.581 -29.782,-11.188Zm92.471,-169.147c-10.64,-6.691 -33.456,-17.222 -68.448,-31.591l-0,162.894c4.278,2.742 9.187,4.799 14.726,6.17c5.54,1.371 11.71,2.057 18.511,2.057c23.694,-0 40.696,-3.291 51.007,-9.873c9.763,-6.252 17.524,-14.754 23.282,-25.503c5.759,-10.75 8.639,-21.939 8.639,-33.566c-0,-27.204 -15.906,-50.733 -47.717,-70.588Z" style="fill:#00356e;fill-rule:nonzero;"/><path d="M1178.92,105.818c-2.193,-0 -4.497,-0.329 -6.91,-0.987c-17.77,-4.827 -35.047,-7.24 -51.83,-7.24c-8.227,-0 -17.057,0.658 -26.491,1.974c-9.434,1.317 -19.47,3.291 -30.111,5.924c0,14.589 -0.493,36.253 -1.48,64.993c6.142,-0.439 27.587,-2.468 64.334,-6.088c20.952,-2.084 34.225,-3.126 39.819,-3.126c6.472,-0 12.011,2.056 16.618,6.17c4.608,4.113 6.911,9.57 6.911,16.371c0,13.054 -6.965,20.458 -20.896,22.213c-8.776,0.658 -21.884,1.755 -39.325,3.291c-15.577,1.755 -39.051,3.894 -70.423,6.417c-0.768,13.931 -1.152,25.175 -1.152,33.731c0,21.499 1.262,33.73 3.784,36.692c1.207,1.426 8.118,2.139 20.732,2.139c6.801,-0 17.058,-0.165 30.769,-0.494c13.712,-0.329 23.968,-0.493 30.769,-0.493c2.194,-0 5.43,-0.329 9.708,-0.988c4.278,-0.658 7.459,-0.987 9.543,-0.987c6.362,0 11.792,1.81 16.29,5.43c5.155,4.059 7.733,9.763 7.733,17.112c-0,12.286 -6.417,19.635 -19.251,22.048c-10.969,2.085 -33.731,3.127 -68.284,3.127c-35.76,-0 -59.07,-4.827 -69.929,-14.48c-11.957,-10.64 -17.935,-33.676 -17.935,-69.106c0,-14.699 1.07,-36.775 3.209,-66.227c2.139,-29.453 3.208,-51.474 3.208,-66.063c0,-3.839 -0.548,-9.516 -1.645,-17.03c-1.097,-7.514 -1.646,-13.19 -1.646,-17.03c0,-16.673 7.679,-25.01 23.036,-25.01c4.826,0 9.269,1.371 13.327,4.114c12.725,-3.181 24.818,-5.567 36.281,-7.158c11.463,-1.59 22.295,-2.385 32.497,-2.385c27.643,-0 49.746,3.181 66.309,9.543c10.092,3.839 15.138,10.805 15.138,20.896c-0,5.704 -1.975,10.75 -5.924,15.138c-4.387,5.046 -9.982,7.569 -16.783,7.569Z" style="fill:#00356e;fill-rule:nonzero;"/><path d="M1378.34,310.505c-12.944,5.704 -32.963,10.804 -60.057,15.302c-24.79,4.168 -45.138,6.252 -61.044,6.252c-26.875,0 -40.312,-11.792 -40.312,-35.376c0,1.865 1.097,-15.521 3.291,-52.159c2.852,-47.606 4.278,-100.588 4.278,-158.945c-0,-6.252 2.166,-11.572 6.499,-15.96c4.333,-4.388 9.79,-6.581 16.372,-6.581c6.581,-0 12.066,2.193 16.454,6.581c4.388,4.388 6.581,9.708 6.581,15.96c0,58.467 -1.48,112.326 -4.442,161.578c-0.987,8.775 -2.03,22.213 -3.126,40.312c25.997,-0.439 59.343,-6.801 100.039,-19.086c2.523,-0.768 4.937,-1.152 7.24,-1.152c6.911,-0 12.505,2.523 16.783,7.569c3.839,4.497 5.759,9.543 5.759,15.137c0,9.434 -4.772,16.29 -14.315,20.568Z" style="fill:#00356e;fill-rule:nonzero;"/></g></svg>